<svg xmlns="http://www.w3.org/2000/svg" width="27.173" height="26.743" viewBox="0 0 27.173 26.743">
  <path id="Path_21072" data-name="Path 21072" d="M99.653,31.984A1.662,1.662,0,0,0,98,33.641v4.683a1.662,1.662,0,0,0,1.656,1.656h4.683a1.662,1.662,0,0,0,1.656-1.656V33.641a1.662,1.662,0,0,0-1.656-1.656Zm9.588,0a1.662,1.662,0,0,0-1.656,1.656v4.683a1.662,1.662,0,0,0,1.656,1.656h4.683a1.662,1.662,0,0,0,1.656-1.656V33.641a1.662,1.662,0,0,0-1.656-1.656Zm9.588,0a1.662,1.662,0,0,0-1.656,1.656v4.683a1.662,1.662,0,0,0,1.656,1.656h4.683a1.662,1.662,0,0,0,1.656-1.657V33.64a1.662,1.662,0,0,0-1.656-1.656Zm-19.177.833h4.683a.813.813,0,0,1,.823.823v4.683a.813.813,0,0,1-.823.823H99.653a.813.813,0,0,1-.823-.823V33.64a.813.813,0,0,1,.823-.823Zm9.588,0h4.683a.813.813,0,0,1,.823.823v4.683a.813.813,0,0,1-.823.823h-4.683a.813.813,0,0,1-.823-.823V33.64a.813.813,0,0,1,.823-.823Zm9.588,0h4.683a.813.813,0,0,1,.823.823v4.683a.813.813,0,0,1-.823.823h-4.683a.813.813,0,0,1-.823-.823V33.64a.813.813,0,0,1,.823-.823Zm-7.247,7.562a.4.4,0,0,0-.4.4V42.93h0v3.005l-.621-.631a.4.4,0,0,0-.572.564l1.3,1.32,0,0,0,0,0,0h0l0,0,0,0h0l0,0,.006.006,0,0,0,0h0l.007.006,0,0,.008.006,0,0,0,0h0l0,0h0l.007,0h0l0,0h0l.008,0,0,0,.009,0,0,0h0l.008,0,0,0h0l.008,0,0,0h0l.009,0h.005l.007,0h0l0,0,.009,0,.02.006.008,0h.036l.014,0h.14l.009,0h0l.009,0,.014,0h0l.01,0h0l.006,0,.009,0,.005,0h0l.011-.006.012-.006h0l.008,0,.005,0,.007-.005h0l.008-.005.008-.005h0l.007-.005,0,0,.007-.006,0,0,.007-.006,0,0,.007-.007,0,0,0,0,0,0,.007-.007,1.3-1.322a.4.4,0,0,0,.115-.286h0v-.006a.4.4,0,0,0-.687-.271l-.622.631V40.781a.4.4,0,0,0-.4-.4Zm-6.671.281a.4.4,0,0,0-.3.662,12.55,12.55,0,0,1,2.238,3.879c.124.346.232.7.324,1.054l-.813-.477a.4.4,0,1,0-.406.692l1.594.936h0a.417.417,0,0,0,.155.059l.015,0h.081l.027,0,.026,0h0l.014,0a.388.388,0,0,0,.057-.02h0l.013-.006a.4.4,0,0,0,.077-.048c.012-.009.023-.02.034-.03a.411.411,0,0,0,.063-.081l.944-1.608h0a.4.4,0,0,0,.055-.2c0-.005,0-.01,0-.015h0a.4.4,0,0,0-.748-.2l-.43.732q-.142-.535-.329-1.057a13.349,13.349,0,0,0-2.382-4.129.4.4,0,0,0-.309-.142Zm13.341,0h0a.4.4,0,0,0-.309.142,13.349,13.349,0,0,0-2.382,4.129q-.186.522-.329,1.057l-.43-.732a.4.4,0,0,0-.748.2h0c0,.005,0,.01,0,.015a.4.4,0,0,0,.055.2l.944,1.608a.4.4,0,0,0,.063.081.35.35,0,0,0,.033.03.413.413,0,0,0,.077.048l.013.006h0a.422.422,0,0,0,.057.019l.014,0h0l.026,0,.027,0h.081l.015,0a.391.391,0,0,0,.072-.019.4.4,0,0,0,.083-.04l1.594-.936h0a.4.4,0,1,0-.406-.692l-.812.477q.139-.534.324-1.054a12.545,12.545,0,0,1,2.238-3.879.4.4,0,0,0-.3-.662Zm-6.67,7.7a5.182,5.182,0,1,0,3.664,1.518A5.183,5.183,0,0,0,111.583,48.363Z" transform="translate(-97.997 -31.984)" fill="#034ea2"/>
</svg>
