<svg id="Page-1" xmlns="http://www.w3.org/2000/svg" width="24.732" height="24.732" viewBox="0 0 24.732 24.732">
  <g id="tresata_vector_logo" transform="translate(0 0)">
    <g id="logo_group" data-name="logo/group">
      <g id="Group-4" transform="translate(1.706 3.164)">
        <path id="Fill-8" d="M10.636,1.681a.253.253,0,0,1-.114.114l-.033.02c-.083.03-.139.1-.123.151s.106.074.2.047a.183.183,0,0,1,.224.13l.186.64A.156.156,0,1,0,11.27,2.7l-.322-1.09c-.029-.1-.107-.163-.172-.144s-.116.049-.112.068v.028a.236.236,0,0,1-.028.122" transform="translate(2.626 0.37)" fill="#8d8d8d"/>
        <path id="Fill-9" d="M10.132.905c-.122-.442-.059-.844.139-.9s.454.263.573.707.058.845-.139.9-.453-.261-.573-.7" transform="translate(2.552 0)" fill="#8d8d8d"/>
        <path id="Fill-10" d="M11.2.968c.24-.393.579-.621.751-.514s.119.511-.119.9-.58.623-.752.514-.122-.512.121-.9" transform="translate(2.781 0.108)" fill="#8d8d8d"/>
        <path id="Fill-11" d="M9.617,1.839c-.385-.248-.61-.589-.5-.763s.514-.11.9.139.61.591.5.762-.513.111-.9-.138" transform="translate(2.303 0.248)" fill="#8d8d8d"/>
        <path id="Fill-12" d="M8.669,3.547a.293.293,0,0,1-.087.143l-.026.027c-.071.049-.106.13-.078.177s.121.045.2-.005a.181.181,0,0,1,.248.067l.347.572a.174.174,0,0,0,.228.081.171.171,0,0,0,.034-.238L8.948,3.4c-.053-.088-.145-.132-.2-.1s-.1.078-.093.1l.007.028a.341.341,0,0,1,.01.123" transform="translate(2.146 0.833)" fill="#8d8d8d"/>
        <path id="Fill-13" d="M7.987,2.92c-.231-.4-.273-.8-.1-.907s.507.139.736.535.272.8.1.907-.508-.139-.736-.535" transform="translate(1.972 0.504)" fill="#8d8d8d"/>
        <path id="Fill-14" d="M8.995,2.739c.134-.44.4-.748.6-.69s.248.464.113.9-.4.748-.594.687-.247-.461-.115-.9" transform="translate(2.261 0.517)" fill="#8d8d8d"/>
        <path id="Fill-15" d="M7.736,3.957C7.3,3.816,7,3.544,7.058,3.349s.468-.237.906-.1.74.415.673.609-.464.237-.9.1" transform="translate(1.787 0.803)" fill="#8d8d8d"/>
        <path id="Fill-16" d="M13.254,1.833a.273.273,0,0,1-.133-.1L13.1,1.706c-.043-.076-.118-.118-.168-.094s-.057.115-.015.2a.184.184,0,0,1-.092.242l-.6.289a.174.174,0,0,0-.1.219.173.173,0,0,0,.234.055l1.026-.494c.093-.045.144-.131.114-.192s-.069-.106-.088-.1l-.026,0a.244.244,0,0,1-.124-.005" transform="translate(3.068 0.407)" fill="#8d8d8d"/>
        <path id="Fill-17" d="M13.973,1.209c.417-.191.822-.195.907-.008s-.184.492-.6.682-.827.2-.911.008.183-.491.6-.682" transform="translate(3.384 0.269)" fill="#8d8d8d"/>
        <path id="Fill-18" d="M14.069,2.249c.425.173.708.469.629.657s-.484.2-.91.03-.7-.469-.628-.658.483-.2.909-.028" transform="translate(3.331 0.539)" fill="#8d8d8d"/>
        <path id="Fill-19" d="M12.846.861c.183-.422.484-.7.67-.617s.192.489.008.911-.479.7-.666.615-.191-.49-.012-.91" transform="translate(3.222 0.058)" fill="#8d8d8d"/>
        <path id="Fill-20" d="M6.361,1.827a.265.265,0,0,1-.151.061l-.038.005c-.088-.005-.166.036-.173.091s.067.109.165.121a.182.182,0,0,1,.154.205l-.077.665a.156.156,0,1,0,.3.035l.132-1.128c.012-.1-.034-.192-.1-.2s-.127,0-.13.018l-.013.026a.256.256,0,0,1-.071.1" transform="translate(1.52 0.426)" fill="#8d8d8d"/>
        <path id="Fill-21" d="M6.222.933C6.285.477,6.5.131,6.7.159s.313.419.25.874-.276.8-.481.773-.315-.418-.252-.872" transform="translate(1.572 0.04)" fill="#8d8d8d"/>
        <path id="Fill-22" d="M7.219,1.359c.375-.265.776-.344.892-.177s-.091.517-.466.782-.773.345-.892.177.088-.517.465-.782" transform="translate(1.703 0.277)" fill="#8d8d8d"/>
        <path id="Fill-23" d="M5.338,1.591c-.257-.38-.326-.78-.157-.895s.516.1.773.478.328.782.159.9-.514-.1-.775-.48" transform="translate(1.289 0.169)" fill="#8d8d8d"/>
        <path id="Fill-24" d="M3.941,2.1a.262.262,0,0,1,.007.165l-.01.04c-.034.079-.022.164.028.189s.127-.025.171-.113A.184.184,0,0,1,4.384,2.3l.6.3a.173.173,0,0,0,.236-.052.173.173,0,0,0-.1-.221L4.1,1.819c-.092-.046-.192-.034-.222.027s-.043.119-.028.13L3.871,2a.244.244,0,0,1,.07.1" transform="translate(0.974 0.454)" fill="#8d8d8d"/>
        <path id="Fill-25" d="M3.056,1.921C2.651,1.7,2.4,1.384,2.494,1.2s.5-.153.907.061.658.535.561.716-.5.153-.906-.06" transform="translate(0.627 0.275)" fill="#8d8d8d"/>
        <path id="Fill-26" d="M3.758,1.269c-.121-.443-.06-.846.136-.9s.457.261.578.7.061.844-.139.9-.452-.261-.575-.7" transform="translate(0.936 0.092)" fill="#8d8d8d"/>
        <path id="Fill-27" d="M3.392,2.994c-.446.112-.845.042-.893-.157s.27-.451.713-.561.847-.043.9.156-.271.451-.716.562" transform="translate(0.632 0.563)" fill="#8d8d8d"/>
        <path id="Fill-28" d="M5.319,4.508a.245.245,0,0,1,.1.127l.015.034c.024.086.088.148.142.137s.083-.1.064-.194a.183.183,0,0,1,.15-.21l.654-.127a.155.155,0,1,0-.058-.3l-1.113.217c-.1.019-.174.09-.162.157s.037.12.057.118l.028,0a.282.282,0,0,1,.118.036" transform="translate(1.296 1.007)" fill="#8d8d8d"/>
        <path id="Fill-29" d="M4.505,4.93c-.451.078-.845-.021-.881-.223s.3-.428.754-.505.849.02.884.223-.3.428-.756.505" transform="translate(0.918 1.058)" fill="#8d8d8d"/>
        <path id="Fill-30" d="M4.654,3.936c-.364-.278-.562-.632-.44-.8s.52-.073.887.2.562.635.437.8-.52.07-.885-.205" transform="translate(1.059 0.775)" fill="#8d8d8d"/>
        <path id="Fill-31" d="M5.385,5.659c-.283.359-.642.551-.8.424S4.518,5.56,4.8,5.2s.645-.552.8-.425.062.523-.222.884" transform="translate(1.141 1.2)" fill="#8d8d8d"/>
        <path id="Fill-32" d="M2.705,5.351a.294.294,0,0,1-.05.159l-.025.029c-.061.064-.079.149-.042.189s.127.021.2-.045a.185.185,0,0,1,.258.019l.451.49a.155.155,0,1,0,.225-.205l-.77-.836c-.07-.076-.168-.1-.217-.055s-.082.1-.073.111l.012.028a.209.209,0,0,1,.031.115" transform="translate(0.651 1.286)" fill="#8d8d8d"/>
        <path id="Fill-33" d="M1.926,4.866c-.3-.342-.425-.732-.27-.867s.524.034.825.378.425.735.272.869-.525-.032-.827-.38" transform="translate(0.403 1.002)" fill="#8d8d8d"/>
        <path id="Fill-34" d="M2.85,4.507c.044-.458.243-.811.448-.791s.334.405.29.861-.246.812-.448.793S2.8,4.964,2.85,4.507" transform="translate(0.72 0.941)" fill="#8d8d8d"/>
        <path id="Fill-35" d="M1.888,5.949c-.457-.052-.809-.26-.783-.464s.41-.323.866-.272.807.26.785.462-.412.326-.868.274" transform="translate(0.28 1.318)" fill="#8d8d8d"/>
        <path id="Fill-36" d="M11.99,4.322a.272.272,0,0,1-.051-.158v-.04c.015-.085-.018-.165-.073-.177S11.75,4,11.731,4.1a.182.182,0,0,1-.219.135l-.654-.139a.175.175,0,0,0-.216.11.172.172,0,0,0,.151.187l1.113.237c.1.021.195-.016.209-.082s.01-.126-.01-.131L12.081,4.4a.241.241,0,0,1-.091-.079" transform="translate(2.696 1)" fill="#8d8d8d"/>
        <path id="Fill-37" d="M12.921,4.283c.446.1.77.35.724.55s-.447.274-.893.171-.772-.353-.726-.553.448-.276.895-.168" transform="translate(3.046 1.073)" fill="#8d8d8d"/>
        <path id="Fill-38" d="M12.3,5.232c.227.4.268.8.091.9S11.883,6,11.656,5.6s-.273-.8-.091-.906.5.139.735.537" transform="translate(2.902 1.184)" fill="#8d8d8d"/>
        <path id="Fill-39" d="M12.317,3.327c.4-.222.809-.255.9-.074s-.146.5-.55.723-.807.255-.907.076.15-.5.553-.724" transform="translate(2.976 0.795)" fill="#8d8d8d"/>
        <path id="Fill-40" d="M14.487,5.182a.269.269,0,0,1-.162-.043l-.033-.021c-.066-.055-.152-.068-.19-.028s-.013.128.057.2a.184.184,0,0,1,0,.258l-.462.481a.156.156,0,1,0,.22.211l.786-.821c.071-.075.09-.174.041-.221s-.1-.076-.118-.065l-.021.014a.256.256,0,0,1-.116.039" transform="translate(3.455 1.284)" fill="#8d8d8d"/>
        <path id="Fill-41" d="M14.949,4.379c.324-.324.708-.47.851-.326s0,.526-.329.851-.7.468-.848.323,0-.523.326-.848" transform="translate(3.692 1.013)" fill="#8d8d8d"/>
        <path id="Fill-42" d="M15.441,5.268c.458.015.825.193.817.4s-.382.359-.837.343-.827-.192-.821-.4.386-.359.842-.343" transform="translate(3.699 1.335)" fill="#8d8d8d"/>
        <path id="Fill-43" d="M13.755,4.408c.022-.459.207-.822.412-.812s.352.39.327.849-.207.821-.413.81-.35-.392-.326-.848" transform="translate(3.485 0.911)" fill="#8d8d8d"/>
        <path id="Fill-45" d="M1.628,7.275a.239.239,0,0,1,.132.1l.024.027c.039.078.112.124.164.1s.061-.113.022-.2a.182.182,0,0,1,.1-.237L2.682,6.8a.171.171,0,0,0,.109-.214.174.174,0,0,0-.234-.064L1.52,6.974c-.094.041-.149.127-.122.19s.064.109.082.1l.024,0a.236.236,0,0,1,.124.01" transform="translate(0.352 1.647)" fill="#8d8d8d"/>
        <path id="Fill-46" d="M.921,7.857C.5,8.034.089,8.022.014,7.831s.2-.482.624-.657.832-.165.907.023-.2.486-.624.66" transform="translate(0 1.786)" fill="#8d8d8d"/>
        <path id="Fill-47" d="M.862,6.814c-.416-.189-.685-.493-.6-.679s.493-.183.91.006.689.49.6.678S1.282,7,.862,6.814" transform="translate(0.062 1.52)" fill="#8d8d8d"/>
        <path id="Fill-48" d="M1.914,8.364c-.2.415-.5.678-.693.591s-.175-.493.025-.908.506-.678.691-.592.176.495-.023.91" transform="translate(0.276 1.885)" fill="#8d8d8d"/>
        <path id="Fill-49" d="M12.892,7.931A.262.262,0,0,0,12.74,8l-.025.025c-.058.066-.142.093-.186.06s-.033-.124.025-.2a.184.184,0,0,0-.043-.255l-.534-.4a.155.155,0,1,1,.183-.243l.907.682c.082.061.116.157.075.212s-.088.091-.1.082l-.024-.011a.25.25,0,0,0-.122-.016" transform="translate(3.014 1.758)" fill="#8d8d8d"/>
        <path id="Fill-50" d="M13.483,8.658c.374.27.772.35.892.186s-.089-.52-.461-.787-.769-.35-.892-.184.087.517.462.785" transform="translate(3.291 1.973)" fill="#8d8d8d"/>
        <path id="Fill-51" d="M13.8,7.619c.452-.091.787-.323.746-.523s-.437-.3-.887-.205-.785.324-.745.526.437.291.886.2" transform="translate(3.27 1.737)" fill="#8d8d8d"/>
        <path id="Fill-52" d="M12.293,8.9c.1.449.339.776.538.732s.285-.441.186-.89-.338-.776-.538-.731-.285.441-.186.889" transform="translate(3.105 2.03)" fill="#8d8d8d"/>
        <path id="Fill-53" d="M4.463,8.083a.279.279,0,0,1,.149.068l.031.025c.057.066.14.093.184.06s.031-.124-.028-.2a.183.183,0,0,1,.043-.255l.536-.4a.174.174,0,0,0,.06-.234.171.171,0,0,0-.24-.01l-.913.684c-.082.061-.116.156-.074.21s.088.091.1.081L4.339,8.1a.246.246,0,0,1,.124-.017" transform="translate(1.063 1.797)" fill="#8d8d8d"/>
        <path id="Fill-54" d="M3.9,8.813c-.368.27-.77.349-.892.183s.091-.519.462-.787.772-.347.894-.18-.088.516-.463.784" transform="translate(0.754 2.012)" fill="#8d8d8d"/>
        <path id="Fill-55" d="M3.631,7.772c-.448-.088-.784-.322-.744-.523s.438-.294.887-.2.783.325.746.525-.435.292-.889.2" transform="translate(0.731 1.776)" fill="#8d8d8d"/>
        <path id="Fill-56" d="M4.967,9.059c-.1.447-.339.776-.539.732s-.283-.442-.185-.89.338-.777.537-.734.287.442.187.892" transform="translate(1.065 2.068)" fill="#8d8d8d"/>
        <path id="Fill-57" d="M15.744,7.012a.3.3,0,0,1-.008-.165l.01-.037c.034-.082.019-.169-.031-.193s-.126.027-.168.115a.18.18,0,0,1-.245.077l-.6-.3a.155.155,0,1,0-.136.273l1.018.5c.092.046.192.033.222-.028s.043-.119.029-.129l-.02-.02a.259.259,0,0,1-.072-.1" transform="translate(3.663 1.645)" fill="#8d8d8d"/>
        <path id="Fill-58" d="M16.656,7.22c.409.21.662.529.569.711s-.5.156-.91-.057-.661-.529-.565-.712.5-.154.906.058" transform="translate(3.986 1.784)" fill="#8d8d8d"/>
        <path id="Fill-59" d="M15.827,8c.123.442.064.846-.132.9s-.46-.258-.581-.7-.067-.844.13-.9.457.259.583.7" transform="translate(3.813 1.847)" fill="#8d8d8d"/>
        <path id="Fill-60" d="M16.331,6.108c.446-.115.847-.046.9.15s-.267.451-.71.566-.846.048-.9-.149.267-.451.71-.568" transform="translate(3.957 1.534)" fill="#8d8d8d"/>
      </g>
      <path id="Fill-44" d="M23.831,12.365l0,.019s-.156,4.936-3.21,6.649a6.4,6.4,0,0,1-1.079.478,4.113,4.113,0,0,1-4.6-1.524.136.136,0,0,0-.022-.028l-.057-.085a4,4,0,0,1-.538-1.115,4.118,4.118,0,0,1,.117-2.6,3.556,3.556,0,0,1,1.441-1.867,4.068,4.068,0,0,1,2.385-.809,7.794,7.794,0,0,0,1.526-.113c.118-.163-.549-.4-.549-.4a5.441,5.441,0,0,0-5.028.666.661.661,0,0,1-.147.052c-.156-.1-.113-.353-.113-.353a6.653,6.653,0,0,1,2.68-4.76c.1-.075.287-.256.223-.407-.028-.073-.425-.246-1.313.366a8.217,8.217,0,0,0-3.177,4.233.032.032,0,0,1-.007.016.1.1,0,0,0-.005-.016A8.232,8.232,0,0,0,9.183,6.527C8.3,5.916,7.977,6.1,7.94,6.174c-.088.163.049.319.155.394a6.666,6.666,0,0,1,2.679,4.76s.045.248-.118.353a.706.706,0,0,1-.141-.052,5.442,5.442,0,0,0-5.027-.666s-.668.239-.556.4a7.278,7.278,0,0,0,1.45.061,4.352,4.352,0,0,1,2.464.86,3.543,3.543,0,0,1,1.442,1.867,4.139,4.139,0,0,1,.273,1.48,3.814,3.814,0,0,1-.693,2.239c-.02.03-.04.056-.058.085-.007.008-.013.018-.022.028a4.11,4.11,0,0,1-4.6,1.524,6.428,6.428,0,0,1-1.079-.478C1.056,17.319.9,12.383.9,12.383l0-.019a11.466,11.466,0,0,1,22.932,0Zm.866-.951a12.367,12.367,0,1,0,0,1.9c.023-.315.036-.632.036-.952s-.013-.637-.036-.951Z" transform="translate(0 0)" fill="#8d8d8d"/>
    </g>
  </g>
</svg>
