<svg xmlns="http://www.w3.org/2000/svg" width="26.625" height="26.621" viewBox="0 0 26.625 26.621">
  <path id="noun-share-5090495" d="M141.964,57.314a1.331,1.331,0,0,0,1.331-1.331V48a1.331,1.331,0,0,0-1.331-1.331h-7.991a1.331,1.331,0,0,0,0,2.662h4.778L127.3,60.784a1.331,1.331,0,0,0,1.882,1.882L140.633,51.21v4.773a1.331,1.331,0,0,0,1.331,1.331Zm-21.3-6.655a3.993,3.993,0,0,0-3.993,3.993V69.294a3.993,3.993,0,0,0,3.993,3.993H135.3a3.993,3.993,0,0,0,3.993-3.993V61.307a1.331,1.331,0,0,0-2.662,0v7.986a1.331,1.331,0,0,1-1.331,1.331H120.663a1.331,1.331,0,0,1-1.331-1.331V54.652a1.331,1.331,0,0,1,1.331-1.331h7.986a1.331,1.331,0,0,0,0-2.662Z" transform="translate(-116.67 -46.666)" fill="#d0d0d0" fill-rule="evenodd"/>
</svg>
