<svg xmlns="http://www.w3.org/2000/svg" width="31" height="29.9" viewBox="0 0 31 29.9">
  <g id="Group_172019" data-name="Group 172019" transform="translate(-215 -27)">
    <g id="db2--database" transform="translate(215 27)">
      <path id="Path_21084" data-name="Path 21084" d="M14.6,3C9.977,3,5,4.093,5,6.491V22.2c0,2.4,4.977,3.491,9.6,3.491S24.2,24.6,24.2,22.2V6.491C24.2,4.093,19.224,3,14.6,3Zm0,1.745c5.06,0,7.676,1.252,7.852,1.745-.176.494-2.792,1.745-7.852,1.745-5.1,0-7.715-1.27-7.855-1.73v0C6.886,6.016,9.5,4.745,14.6,4.745ZM6.746,8.61A19.3,19.3,0,0,0,14.6,9.982,19.3,19.3,0,0,0,22.455,8.61v3.107c-.14.486-2.757,1.757-7.855,1.757S6.877,12.2,6.746,11.727Zm0,5.236A19.3,19.3,0,0,0,14.6,15.218a19.3,19.3,0,0,0,7.855-1.372v3.107c-.14.486-2.757,1.757-7.855,1.757s-7.723-1.274-7.855-1.745Zm7.855,10.1c-5.106,0-7.723-1.274-7.855-1.745V19.083A19.3,19.3,0,0,0,14.6,20.455a19.3,19.3,0,0,0,7.855-1.372v3.107C22.315,22.676,19.7,23.946,14.6,23.946Z" transform="translate(-0.636 -0.649)" fill="#d0d0d0"/>
      <rect id="_lt_Transparent_Rectangle_gt_" data-name="&amp;lt;Transparent Rectangle&amp;gt;" width="28" height="28" fill="none"/>
    </g>
    <circle id="Ellipse_702" data-name="Ellipse 702" cx="7" cy="7" r="7" transform="translate(232 42)" fill="#d0d0d0"/>
    <g id="Group_172005" data-name="Group 172005" transform="translate(234.609 43.886)">
      <path id="Path_21085" data-name="Path 21085" d="M4.382,5.068a2.437,2.437,0,0,1-.889.336,4.437,4.437,0,0,0,1.134.4L6.213,2.221,4.008,0A6.707,6.707,0,0,1,0,.758,6.319,6.319,0,0,0,.44,2.071a2.006,2.006,0,0,0,1.1-.307.161.161,0,1,1,.172.271A2.365,2.365,0,0,1,.6,2.393a7.7,7.7,0,0,0,.49.819,1.987,1.987,0,0,0,1.137-.3.161.161,0,0,1,.172.271,2.376,2.376,0,0,1-1.076.356,7.447,7.447,0,0,0,.605.7,1.951,1.951,0,0,0,1.206-.3.161.161,0,1,1,.172.271,2.4,2.4,0,0,1-1.034.353,6.169,6.169,0,0,0,.69.531.157.157,0,0,1,.043,0A1.95,1.95,0,0,0,4.21,4.8a.161.161,0,1,1,.172.271Z" transform="translate(0 8.91) rotate(-45)" fill="#fff"/>
      <path id="Path_21086" data-name="Path 21086" d="M2.141,1.3h0L1.226.381.848,0A5.433,5.433,0,0,1,0,.668L2.06,2.744l.466-1.053Z" transform="translate(2.442 5.282) rotate(-45)" fill="#fff"/>
      <path id="Path_21087" data-name="Path 21087" d="M3.276.143a.483.483,0,0,0-.687,0L0,2.753l.3.3.391.394L3.276.839a.5.5,0,0,0,0-.7Z" transform="translate(1.792 2.418) rotate(-45)" fill="#fff"/>
    </g>
  </g>
</svg>
