<svg xmlns="http://www.w3.org/2000/svg" width="28.295" height="28.421" viewBox="0 0 28.295 28.421">
  <g id="noun-connection-1597635_1_" data-name="noun-connection-1597635 (1)" transform="translate(-76.017 -41.008)">
    <path id="Path_13070" data-name="Path 13070" d="M301.887,183.284a5.868,5.868,0,1,1-5.868-5.868,5.868,5.868,0,0,1,5.868,5.868" transform="translate(-203.546 -128.297)" fill="#d0d0d0"/>
    <path id="Path_13071" data-name="Path 13071" d="M480.122,146.517a2.533,2.533,0,0,0-4.664,1.9l-1.828.988a6.141,6.141,0,0,1,.549.938l1.8-.971a2.533,2.533,0,0,0,4.147-2.859Z" transform="translate(-376.114 -97.985)" fill="#d0d0d0"/>
    <path id="Path_13072" data-name="Path 13072" d="M445.207,357.352l-1.882-3.135a6.2,6.2,0,0,1-.879.646l1.831,3.048a3.456,3.456,0,1,0,.931-.559Z" transform="translate(-346.784 -294.586)" fill="#d0d0d0"/>
    <path id="Path_13073" data-name="Path 13073" d="M348.214,46.016v2.818c.18-.016.36-.025.543-.025s.364.009.543.025V46.016a2.534,2.534,0,1,0-1.086,0Z" transform="translate(-256.283)" fill="#d0d0d0"/>
    <path id="Path_13074" data-name="Path 13074" d="M227.365,351.939l-1.9,2.041a2.534,2.534,0,1,0,.795.74l1.964-2.109a6.2,6.2,0,0,1-.858-.672Z" transform="translate(-139.108 -292.444)" fill="#d0d0d0"/>
    <path id="Path_13075" data-name="Path 13075" d="M122.675,161.047l-3.781-1.209a3.431,3.431,0,1,0-.33,1.034l3.852,1.232a6.116,6.116,0,0,1,.26-1.057Z" transform="translate(-36.049 -108.051)" fill="#d0d0d0"/>
  </g>
</svg>
