<svg xmlns="http://www.w3.org/2000/svg" width="16.881" height="27.9" viewBox="0 0 16.881 27.9">
  <path id="noun-medal-5140924" d="M203.748,32.91v-2.9l-1.876.469v1.866a5.9,5.9,0,0,0-1.876,0V30.481l-1.876-.469v2.9a6.564,6.564,0,1,0,5.627,0Zm1.172,4.9-1.3,1.491.562,2.1a.929.929,0,0,1-.338.994.961.961,0,0,1-.562.188.994.994,0,0,1-.487-.131l-1.857-1.116-1.866,1.116a.933.933,0,0,1-1.378-1.05l.563-2.1-1.3-1.491a.938.938,0,0,1,.7-1.557h1.735l.694-1.557a.935.935,0,0,1,1.707,0l.694,1.557h1.735a.938.938,0,0,1,.7,1.557Zm.262-10.093-4.02,1.005a.944.944,0,0,1-.455,0l-4.02-1.005L200.449,17.5h.971Zm-10.325-.457-1.653-.413a.938.938,0,0,1-.651-1.239l2.813-7.5a.938.938,0,0,1,.878-.609h2.205Zm14.411-.887a.941.941,0,0,1-.6.474l-1.652.413L203.419,17.5h2.205a.939.939,0,0,1,.878.609l2.813,7.5a.942.942,0,0,1-.048.765Z" transform="translate(-192.494 -17.502)" fill="#d0d0d0"/>
</svg>
