<svg xmlns="http://www.w3.org/2000/svg" width="30" height="30" viewBox="0 0 30 30">
  <g id="Group_172192" data-name="Group 172192" transform="translate(-79 -26)">
    <path id="Subtraction_4" data-name="Subtraction 4" d="M2533.656,21060c-4.075,0-8.462-.963-8.462-3.076v-4.561h1.564c.313.5,2.728,1.484,6.9,1.484,4.5,0,6.628-1.088,6.892-1.484h1.57v4.561C2542.118,21059.037,2537.731,21060,2533.656,21060Zm-6.924-5.824v2.748c.122.424,2.435,1.539,6.924,1.539s6.8-1.123,6.924-1.549v-2.738a20.4,20.4,0,0,1-13.848,0Zm0-3.809h0l-1.537,0v-1.5h4.4a22.939,22.939,0,0,0,8.089,0h4.43v1.494l-1.538,0v-.8a10.047,10.047,0,0,1-2.516.8h-8.816a10.3,10.3,0,0,1-2.516-.8v.8Zm0-3.5h0l-1.537,0v-3.791c0-2.113,4.386-3.076,8.462-3.076s8.462.963,8.462,3.076v3.789l-1.538,0v-1.92a20.493,20.493,0,0,1-13.848,0v1.922Zm6.924-5.33c-4.488,0-6.8,1.123-6.924,1.549.126.42,2.447,1.527,6.924,1.527s6.766-1.1,6.919-1.539C2540.421,21042.639,2538.138,21041.539,2533.656,21041.539Z" transform="translate(-2439.27 -21008.617)" fill="#034ea2"/>
    <g id="Group_172006" data-name="Group 172006" transform="translate(-755.5 -919.5)">
      <path id="noun-scan-2496077" d="M95.5,30H91a.75.75,0,1,1,0-1.5h4.5a3,3,0,0,0,3-3V21a.75.75,0,1,1,1.5,0v4.5A4.5,4.5,0,0,1,95.5,30Zm3.75-14.25H70.75a.75.75,0,0,1,0-1.5h28.5a.75.75,0,0,1,0,1.5Zm0-6A.75.75,0,0,1,98.5,9V4.5a3,3,0,0,0-3-3H91A.75.75,0,1,1,91,0h4.5A4.5,4.5,0,0,1,100,4.5V9a.75.75,0,0,1-.75.75ZM79,1.5H74.5a3,3,0,0,0-3,3V9A.75.75,0,0,1,70,9V4.5A4.5,4.5,0,0,1,74.5,0H79a.75.75,0,0,1,0,1.5ZM70.75,20.25a.75.75,0,0,1,.75.75v4.5a3,3,0,0,0,3,3H79A.75.75,0,1,1,79,30H74.5A4.5,4.5,0,0,1,70,25.5V21A.75.75,0,0,1,70.75,20.25Z" transform="translate(764.5 945.5)" fill="#034ea2"/>
      <g id="db2--database" transform="translate(837.577 948.577)">
        <rect id="_lt_Transparent_Rectangle_gt_" data-name="&amp;lt;Transparent Rectangle&amp;gt;" width="24" height="24" transform="translate(0.423 0.423)" fill="none"/>
      </g>
    </g>
  </g>
</svg>
