<svg xmlns="http://www.w3.org/2000/svg" width="19.741" height="22.034" viewBox="0 0 19.741 22.034">
  <path id="Path_21093" data-name="Path 21093" d="M147.123,39.866l-8.329-7.583a1.817,1.817,0,0,0-2.511,0l-8.329,7.583a.9.9,0,0,0-.273.646V51.949a1.878,1.878,0,0,0,1.865,1.865h4.276a1.878,1.878,0,0,0,1.865-1.865V46.728a.118.118,0,0,1,.124-.124h3.481a.118.118,0,0,1,.124.124v5.221a1.878,1.878,0,0,0,1.865,1.865h4.276a1.878,1.878,0,0,0,1.865-1.865V40.512a.769.769,0,0,0-.3-.646Z" transform="translate(-127.681 -31.779)" fill="#034ea2"/>
</svg>
