<svg xmlns="http://www.w3.org/2000/svg" width="15.635" height="15.635" viewBox="0 0 15.635 15.635">
  <g id="Group_172208" data-name="Group 172208" transform="translate(-489.117 -463.117)">
    <path id="Path_21137" data-name="Path 21137" d="M14.792,18.467V14H12.558v1.117h1.117v3.35H12v1.117h4.467V18.467Z" transform="translate(482.701 455.818)" fill="#034ea2"/>
    <path id="Path_21138" data-name="Path 21138" d="M15.338,8a.838.838,0,1,0,.838.838A.838.838,0,0,0,15.338,8Z" transform="translate(481.597 458.467)" fill="#034ea2"/>
    <path id="Path_21139" data-name="Path 21139" d="M9.818,17.635a7.818,7.818,0,1,1,7.818-7.818,7.818,7.818,0,0,1-7.818,7.818Zm0-14.519a6.7,6.7,0,1,0,6.7,6.7A6.7,6.7,0,0,0,9.818,3.117Z" transform="translate(487.117 461.117)" fill="#034ea2"/>
  </g>
</svg>
