<svg xmlns="http://www.w3.org/2000/svg" width="24.47" height="24.058" viewBox="0 0 24.47 24.058">
  <g id="noun-bulb-3408498" transform="translate(-83.999 -18.48)" opacity="0.4">
    <path id="Path_21097" data-name="Path 21097" d="M213.477,143.618a6.578,6.578,0,0,0-5.594,5.835,6.926,6.926,0,0,0,2.76,6.419,1.888,1.888,0,0,1,.8,1.565v.557h5.444v-.53a1.9,1.9,0,0,1,.778-1.565,6.786,6.786,0,0,0,2.86-5.623,6.45,6.45,0,0,0-7.049-6.657Z" transform="translate(-117.972 -119.58)" fill="#707070"/>
    <path id="Path_21098" data-name="Path 21098" d="M288.96,480.286a.793.793,0,0,0,.292.61l.822.69a.838.838,0,0,0,.5.186h2.546a.7.7,0,0,0,.5-.186l.822-.69a.793.793,0,0,0,.292-.61V478.8H288.96Z" transform="translate(-195.617 -439.234)" fill="#707070"/>
    <path id="Path_21099" data-name="Path 21099" d="M333.463,22.379a.826.826,0,0,0,.822-.822V19.3a.822.822,0,1,0-1.644,0V21.53A.816.816,0,0,0,333.463,22.379Z" transform="translate(-237.229)" fill="#707070"/>
    <path id="Path_21100" data-name="Path 21100" d="M209.283,56.077A.836.836,0,0,0,210,56.5a.69.69,0,0,0,.4-.106.8.8,0,0,0,.292-1.114l-1.114-1.936a.814.814,0,1,0-1.406.822Z" transform="translate(-118.366 -32.822)" fill="#707070"/>
    <path id="Path_21101" data-name="Path 21101" d="M117.741,144.76l1.936,1.114a.749.749,0,0,0,.4.106.836.836,0,0,0,.716-.424.813.813,0,0,0-.292-1.114l-1.936-1.114a.813.813,0,0,0-1.114.292.827.827,0,0,0,.292,1.14Z" transform="translate(-31.752 -119.019)" fill="#707070"/>
    <path id="Path_21102" data-name="Path 21102" d="M87.871,268.5a.826.826,0,0,0-.822-.822H84.821a.822.822,0,0,0,0,1.644h2.228A.81.81,0,0,0,87.871,268.5Z" transform="translate(0 -237.763)" fill="#707070"/>
    <path id="Path_21103" data-name="Path 21103" d="M119.678,368.35l-1.936,1.114a.8.8,0,0,0-.292,1.114.836.836,0,0,0,.716.424.69.69,0,0,0,.4-.106l1.936-1.114a.8.8,0,0,0,.292-1.114.779.779,0,0,0-1.114-.318Z" transform="translate(-31.754 -333.725)" fill="#707070"/>
    <path id="Path_21104" data-name="Path 21104" d="M510.378,369l-1.936-1.114a.814.814,0,0,0-.822,1.406l1.936,1.114a.749.749,0,0,0,.4.106.836.836,0,0,0,.716-.424A.778.778,0,0,0,510.378,369Z" transform="translate(-403.898 -333.287)" fill="#707070"/>
    <path id="Path_21105" data-name="Path 21105" d="M537.292,267.12h-2.228a.822.822,0,1,0,0,1.644h2.228a.822.822,0,1,0,0-1.644Z" transform="translate(-429.645 -237.228)" fill="#707070"/>
    <path id="Path_21106" data-name="Path 21106" d="M507.364,145.837a.69.69,0,0,0,.4-.106l1.936-1.114a.814.814,0,1,0-.822-1.406l-1.936,1.114a.8.8,0,0,0-.292,1.114A.811.811,0,0,0,507.364,145.837Z" transform="translate(-403.245 -118.902)" fill="#707070"/>
    <path id="Path_21107" data-name="Path 21107" d="M433.581,55.3a.749.749,0,0,0,.4.106.836.836,0,0,0,.716-.424l1.114-1.936a.813.813,0,0,0-.292-1.114.791.791,0,0,0-1.114.292l-1.114,1.936a.827.827,0,0,0,.292,1.141Z" transform="translate(-333.169 -31.751)" fill="#707070"/>
  </g>
</svg>
