<svg id="star--filled" xmlns="http://www.w3.org/2000/svg" width="14" height="14" viewBox="0 0 14 14">
  <rect id="_Transparent_Rectangle_" data-name="&lt;Transparent Rectangle&gt;" width="14" height="14" fill="none"/>
  <path id="Path_21136" data-name="Path 21136" d="M7.605,3.915,8.791,6.279l.2.424.43.064,2.647.377L10.184,8.965l-.322.309.077.424.451,2.6L8.022,11.071,7.605,10.9l-.4.208L4.838,12.312l.43-2.6.077-.424-.318-.326-1.9-1.843,2.647-.377.43-.064.2-.424,1.2-2.343M7.605,2,5.65,5.906l-4.37.623L4.443,9.571l-.748,4.292,3.91-2.025,3.91,2.025-.748-4.292,3.163-3.038-4.37-.627Z" transform="translate(-0.605 -0.932)" fill="#034ea2"/>
</svg>
