<svg xmlns="http://www.w3.org/2000/svg" width="24.872" height="21.48" viewBox="0 0 24.872 21.48">
  <path id="Path_21096" data-name="Path 21096" d="M48.026,5.271a2.638,2.638,0,1,1,2.638-2.638A2.638,2.638,0,0,1,48.026,5.271ZM38.153,16.953h9.184l-1.728-1.728a.754.754,0,0,1,1.066-1.066l3.015,3.015a.754.754,0,0,1,0,1.066l-3.015,3.015a.754.754,0,0,1-1.066-1.066l1.728-1.728H38.153a3.806,3.806,0,0,0,0-1.507ZM31,4.126a6.787,6.787,0,0,0,0,12.088,3.758,3.758,0,0,0-.307,1.493c0,.01,0,.021,0,.031a8.294,8.294,0,0,1,0-15.135c0,.01,0,.021,0,.031A3.759,3.759,0,0,0,31,4.126Zm13.335-.739h-6.18a3.807,3.807,0,0,0,0-1.507h6.18a3.8,3.8,0,0,0,0,1.507ZM34.459,5.271A2.638,2.638,0,1,1,37.1,2.633,2.638,2.638,0,0,1,34.459,5.271Zm0,15.074A2.638,2.638,0,1,1,37.1,17.707,2.638,2.638,0,0,1,34.459,20.345Z" transform="translate(-25.792 0.005)" fill="#034ea2"/>
</svg>
